<?xml version="1.0" standalone="no"?>
<!DOCTYPE svg PUBLIC "-//W3C//DTD SVG 20010904//EN"
 "http://www.w3.org/TR/2001/REC-SVG-20010904/DTD/svg10.dtd">
<svg version="1.0" xmlns="http://www.w3.org/2000/svg"
 width="340.000000pt" height="340.000000pt" viewBox="0 0 340.000000 340.000000"
 preserveAspectRatio="xMidYMid meet">
<metadata>
Created by potrace 1.14, written by Peter Selinger 2001-2017
</metadata>
<g transform="translate(0.000000,340.000000) scale(0.100000,-0.100000)"
fill="#000000" stroke="none">
<path d="M1989 3308 c-72 -66 -187 -237 -249 -371 -41 -86 -41 -87 -78 -87
-50 0 -185 -33 -247 -61 -27 -12 -98 -53 -158 -90 -84 -54 -116 -69 -145 -69
-54 0 -147 -26 -206 -58 -185 -100 -359 -387 -344 -568 6 -67 41 -120 113
-169 l52 -36 6 -92 c17 -245 121 -475 293 -649 l66 -66 -26 -65 c-46 -117 -30
-229 40 -269 46 -27 173 -41 304 -34 147 8 194 28 229 99 23 47 25 48 64 45
37 -3 43 -7 64 -49 29 -55 64 -77 140 -87 56 -7 58 -8 58 -37 l0 -30 -250 -47
c-137 -26 -265 -47 -283 -47 -24 -1 -41 8 -68 34 -48 48 -109 78 -143 70 -37
-8 -79 -53 -96 -101 -11 -33 -11 -44 1 -74 8 -19 24 -44 34 -56 24 -25 25 -34
3 -79 -15 -32 -15 -38 -1 -69 21 -44 94 -81 142 -72 40 8 79 47 106 109 11 26
22 47 24 47 2 0 122 27 267 60 145 33 273 60 285 60 12 0 28 -8 35 -17 31 -37
93 -73 127 -73 27 0 43 9 74 40 47 46 46 70 -3 132 -16 20 -29 40 -29 43 0 4
11 21 25 39 14 18 25 40 25 49 0 8 20 25 44 37 81 39 107 137 65 250 -11 30
-23 63 -26 72 -4 13 13 38 56 83 120 129 192 245 240 390 30 94 61 251 61 316
0 30 5 41 23 50 48 26 107 83 126 123 38 78 21 188 -50 335 -36 72 -122 189
-169 229 -89 76 -221 132 -309 132 -40 0 -59 8 -141 61 -51 34 -122 75 -157
91 -52 25 -63 34 -63 55 0 13 18 91 40 171 22 81 47 185 55 231 20 112 13 123
-46 69z"/>
</g>
</svg>
